<?xml version="1.0" encoding="utf-8"?>
<!-- Generator: Adobe Illustrator 22.0.1, SVG Export Plug-In . SVG Version: 6.00 Build 0)  -->
<svg version="1.1" id="Layer_1" xmlns="http://www.w3.org/2000/svg" xmlns:xlink="http://www.w3.org/1999/xlink" x="0px" y="0px"
	 viewBox="0 0 16 16.1" style="enable-background:new 0 0 16 16.1;" xml:space="preserve">
<style type="text/css">
	.st0{fill:#001C31;}
</style>
<title></title>
<desc>Created with Sketch.</desc>
<g>
	<g>
		<path class="st0" d="M8,16c-4.4,0-8-3.6-8-8s3.6-8,8-8s8,3.6,8,8S12.4,16,8,16z M8,0.9C4.1,0.9,0.9,4.1,0.9,8s3.2,7.1,7.1,7.1
			s7.1-3.2,7.1-7.1S11.9,0.9,8,0.9z"/>
	</g>
	<g>
		<g>
			<path class="st0" d="M8.7,7.5c0.5-0.1,0.7-0.3,0.7-0.7S9.2,6.2,8.8,6.1C8.5,6.1,8.2,6,7.7,6C7.6,6,7.6,6,7.6,6v1.6h0.1
				C8.1,7.6,8.5,7.6,8.7,7.5z"/>
		</g>
		<g>
			<path class="st0" d="M9,8.5C8.7,8.4,8.3,8.4,7.7,8.4H7.6v1.7h0.1c0.6,0,1,0,1.2-0.1c0.5-0.1,0.8-0.4,0.8-0.8
				C9.7,8.9,9.5,8.6,9,8.5z"/>
		</g>
		<g>
			<path class="st0" d="M8,2.3C4.8,2.3,2.3,4.9,2.3,8s2.6,5.7,5.7,5.7s5.7-2.6,5.7-5.7S11.2,2.3,8,2.3z M10.6,10.7
				C10.2,10.9,9.7,11,9,11.1v1.1H8.2v-1.1H7.5v1.1H6.8v-1.1H5.2l0.2-0.9h0.2c0.3,0,0.4,0,0.5,0s0.2-0.1,0.2-0.2V6.3
				C6.3,6.1,6.2,6,6,6C5.9,6,5.7,6,5.4,6H5.2V5.1h0.5c0.6,0,0.9,0,1.1,0V3.9h0.8v1.3h0.6V3.9H9v1.3c0.6,0.1,1,0.2,1.3,0.4
				c0.4,0.2,0.6,0.5,0.6,1c0.1,0.6-0.2,1.1-0.7,1.3c0.4,0.1,0.7,0.3,0.9,0.5c0.2,0.3,0.3,0.6,0.3,1.1C11.2,10,11,10.4,10.6,10.7z"/>
		</g>
	</g>
</g>
</svg>
