<?xml version="1.0" encoding="utf-8"?>
<!-- Generator: Adobe Illustrator 22.1.0, SVG Export Plug-In . SVG Version: 6.00 Build 0)  -->
<svg version="1.1" id="Layer_1" xmlns="http://www.w3.org/2000/svg" xmlns:xlink="http://www.w3.org/1999/xlink" x="0px" y="0px"
	 viewBox="0 0 16 16.1" style="enable-background:new 0 0 16 16.1;" xml:space="preserve">
<style type="text/css">
	.st0{fill:#001C31;}
</style>
<desc>Created with Sketch.</desc>
<path class="st0" d="M8,16c-4.4,0-8-3.6-8-8s3.6-8,8-8s8,3.6,8,8S12.4,16,8,16z M8,0.9C4.1,0.9,0.9,4.1,0.9,8s3.2,7.1,7.1,7.1
	s7.1-3.2,7.1-7.1S11.9,0.9,8,0.9z M9,6.4C9,6,8.6,5.7,8.2,5.7H7.4v1.6h0.8C8.6,7.2,9,6.9,9,6.4z M8.6,8H7.4v2.3h1.2
	c0.6,0,1.2-0.5,1.2-1.2C9.7,8.5,9.2,8,8.6,8z M8,2.3C4.8,2.3,2.3,4.9,2.3,8c0,3.1,2.6,5.7,5.7,5.7s5.7-2.6,5.7-5.7
	C13.7,4.9,11.2,2.3,8,2.3z M9.3,11.1c-0.2,0-0.4,0.2-0.4,0.4v0.4c0,0.2-0.2,0.4-0.4,0.4c-0.2,0-0.4-0.2-0.4-0.4v-0.4
	c0-0.2-0.2-0.4-0.4-0.4s-0.4,0.2-0.4,0.4v0.4c0,0.2-0.2,0.4-0.4,0.4s-0.4-0.2-0.4-0.4v-0.4c0-0.2-0.2-0.4-0.4-0.4H5.1v-0.8h0.4
	c0.2,0,0.4-0.2,0.4-0.4V6.1c0-0.2-0.2-0.4-0.4-0.4H5.1V4.9h1.2c0.2,0,0.4-0.2,0.4-0.4V4.1c0-0.2,0.2-0.4,0.4-0.4s0.4,0.2,0.4,0.4
	v0.4c0,0.2,0.2,0.4,0.4,0.4s0.4-0.2,0.4-0.4V4.1c0-0.2,0.2-0.4,0.4-0.4C8.8,3.7,9,3.9,9,4.1v0.4c0,0.1,0,0.3,0.4,0.4c0,0,0,0,0,0
	c0.6,0.2,1.1,0.8,1.1,1.5c0,0.4-0.1,0.7-0.3,1c0.7,0.3,1.1,1,1.1,1.8C11.3,10.2,10.4,11.1,9.3,11.1z"/>
</svg>
