<?xml version="1.0" encoding="UTF-8"?>
<svg width="14px" height="16px" viewBox="0 0 14 16" version="1.1" xmlns="http://www.w3.org/2000/svg" xmlns:xlink="http://www.w3.org/1999/xlink">
    <!-- Generator: Sketch 51.2 (57519) - http://www.bohemiancoding.com/sketch -->
    <title></title>
    <desc>Created with Sketch.</desc>
    <defs></defs>
    <g id="Page-1" stroke="none" stroke-width="1" fill="none" fill-rule="evenodd">
        <g id="Desktop-HD-V4" transform="translate(-1083.000000, -1179.000000)" fill="#001C31">
            <g id="Group" transform="translate(1075.000000, 1172.000000)">
                <path d="M17.2812279,14.5937653 C17.2812279,14.8437647 17.2031031,15.0573057 17.0468534,15.2343887 C16.8906038,15.4114718 16.6978958,15.5000131 16.4687298,15.5000131 C16.2395638,15.5000131 16.0468558,15.4114718 15.8906062,15.2343887 C15.7343566,15.0573057 15.6562317,14.8437647 15.6562317,14.5937653 C15.6562317,14.3437659 15.7343566,14.1354329 15.8906062,13.9687668 C16.0468558,13.8021007 16.2395638,13.7187674 16.4687298,13.7187674 C16.6978958,13.7187674 16.8906038,13.8021007 17.0468534,13.9687668 C17.2031031,14.1354329 17.2812279,14.3437659 17.2812279,14.5937653 Z M13.5624867,13.7187674 C13.7916527,13.7187674 13.9843607,13.8021007 14.1406104,13.9687668 C14.29686,14.1354329 14.3749848,14.3437659 14.3749848,14.5937653 C14.3749848,14.8437647 14.29686,15.0573057 14.1406104,15.2343887 C13.9843607,15.4114718 13.7916527,15.5000131 13.5624867,15.5000131 C13.3333208,15.5000131 13.1406127,15.4114718 12.9843631,15.2343887 C12.8281135,15.0573057 12.7499887,14.8437647 12.7499887,14.5937653 C12.7499887,14.3437659 12.8281135,14.1354329 12.9843631,13.9687668 C13.1406127,13.8021007 13.3333208,13.7187674 13.5624867,13.7187674 Z M21.9999666,8.65627943 L21.9999666,22.9999952 L21.2187185,22.3124969 C20.5728865,21.7291648 19.7916384,21.0208334 18.8749741,20.1875019 L18.2812255,19.6250033 L18.7187244,21.1249997 L9.62499613,21.1249997 C9.18749717,21.1249997 8.80728958,20.9635416 8.48437385,20.6406259 C8.16145811,20.3177101 8,19.9270861 8,19.4687537 L8,8.65627943 C8,8.19794703 8.16145811,7.80732296 8.48437385,7.48440722 C8.80728958,7.16149149 9.18749717,7.00003338 9.62499613,7.00003338 L20.3749705,7.00003338 C20.8124695,7.00003338 21.192677,7.16149149 21.5155928,7.48440722 C21.8385085,7.80732296 21.9999666,8.19794703 21.9999666,8.65627943 Z M19.7187221,16.2187614 C19.7187221,15.1562639 19.5312225,14.0625165 19.1562234,12.9375192 C18.9478904,12.3750206 18.7499744,11.9166882 18.5624748,11.5625225 C18.0833095,11.2083568 17.5624772,10.9583574 16.9999785,10.8125243 C16.7291457,10.7500244 16.4999797,10.7187745 16.3124802,10.7187745 L16.2187304,10.8437742 C16.7812291,11.0312738 17.2812279,11.2604397 17.7187268,11.5312726 C17.9270598,11.6562723 18.0833095,11.7708555 18.1874757,11.8750218 C17.2708114,11.3541895 16.2812303,11.0833571 15.2187328,11.0625237 C14.1562353,11.0416903 13.1562377,11.2291898 12.2187399,11.6250224 L11.7499911,11.8750218 L11.9687405,11.6875222 C12.1770735,11.5416891 12.4062395,11.4062729 12.6562389,11.2812732 C13.031238,11.0937736 13.4270706,10.937524 13.8437361,10.8125243 L13.7812362,10.7187745 L13.437487,10.7500244 C13.1666542,10.7916908 12.8958218,10.8646077 12.624989,10.9687739 C12.2291564,11.1146071 11.8645743,11.3125231 11.5312416,11.5625225 L11.2187423,12.2187709 C10.9895764,12.7396032 10.8124933,13.2916849 10.6874936,13.875017 C10.4791606,14.6875151 10.3749943,15.4687632 10.3749943,16.2187614 L10.499994,16.406261 C10.6249937,16.5520941 10.7708269,16.6875103 10.937493,16.81251 C11.166659,17.0000095 11.4166584,17.1354257 11.6874912,17.218759 C12.0416569,17.3645922 12.416656,17.4375085 12.8124885,17.4375085 L13.3437373,16.7812601 C13.0520714,16.6979268 12.7812386,16.5729271 12.5312392,16.406261 C12.3645731,16.2812613 12.2187399,16.1562615 12.0937402,16.0312618 L11.9374906,15.8437623 L12.2812398,16.0312618 C12.9895716,16.4270944 13.7708197,16.6666768 14.6249842,16.7500101 C15.562482,16.81251 16.4478964,16.6666768 17.2812279,16.3125112 C17.5937271,16.2083449 17.8958099,16.0520953 18.1874757,15.8437623 L18.062476,16.0312618 C17.9166429,16.177095 17.7603932,16.3020947 17.5937271,16.406261 C17.3437277,16.5729271 17.0624784,16.7083437 16.7499791,16.81251 L17.2812279,17.4375085 C17.6770604,17.4375085 18.0520595,17.3645922 18.4062252,17.218759 C18.677058,17.1354257 18.9270574,17.0000095 19.1562234,16.81251 C19.3228895,16.6875103 19.4687227,16.5520941 19.5937224,16.406261 L19.7187221,16.2187614 Z" id=""></path>
            </g>
        </g>
    </g>
</svg>