<?xml version="1.0" encoding="UTF-8"?>
<svg width="16px" height="12px" viewBox="0 0 16 12" version="1.1" xmlns="http://www.w3.org/2000/svg" xmlns:xlink="http://www.w3.org/1999/xlink">
    <!-- Generator: Sketch 51.2 (57519) - http://www.bohemiancoding.com/sketch -->
    <title>Email</title>
    <desc>Created with Sketch.</desc>
    <defs></defs>
    <g id="Page-1" stroke="none" stroke-width="1" fill="none" fill-rule="evenodd">
        <g id="Desktop-HD-V4" transform="translate(-1473.000000, -1181.000000)" fill="#001C31">
            <g id="Group" transform="translate(1075.000000, 1172.000000)">
                <path d="M412.499965,9.00002861 C412.916631,9.00002861 413.270797,9.14586175 413.562463,9.43752757 C413.854129,9.72919338 413.999962,10.0833595 413.999962,10.500025 L413.999962,19.5000036 C413.999962,19.9166691 413.854129,20.2708352 413.562463,20.562501 C413.270797,20.8541669 412.916631,21 412.499965,21 L399.499996,21 C399.083331,21 398.729165,20.8541669 398.437499,20.562501 C398.145833,20.2708352 398,19.9166691 398,19.5000036 L398,10.500025 C398,10.0833595 398.145833,9.72919338 398.437499,9.43752757 C398.729165,9.14586175 399.083331,9.00002861 399.499996,9.00002861 L412.499965,9.00002861 Z M412.499965,10.500025 L399.499996,10.500025 L399.499996,11.781272 C400.229161,12.3646041 401.635408,13.468768 403.718736,15.0937641 L403.999986,15.3437635 C404.416651,15.6979291 404.749984,15.9479286 404.999983,16.0937617 C405.395816,16.3645945 405.729148,16.5000107 405.999981,16.5000107 C406.270814,16.5000107 406.604146,16.3645945 406.999979,16.0937617 C407.249978,15.9479286 407.583311,15.6979291 407.999976,15.3437635 L408.281225,15.0937641 C410.364554,13.4896014 411.770801,12.385437 412.499965,11.781272 L412.499965,10.500025 Z M399.499996,19.5000036 L412.499965,19.5000036 L412.499965,13.6875174 L408.874974,16.5625106 C408.354142,17.0000095 407.92706,17.3125088 407.593727,17.5000083 C407.031228,17.833341 406.49998,18.0000072 405.999981,18.0000072 C405.499982,18.0000072 404.958317,17.833341 404.374985,17.5000083 C404.062486,17.3125088 403.635403,17.0000095 403.093738,16.5625106 L399.499996,13.6875174 L399.499996,19.5000036 Z" id=""></path>
            </g>
        </g>
    </g>
</svg>