<?xml version="1.0" encoding="UTF-8"?>
<svg width="9px" height="16px" viewBox="0 0 9 16" version="1.1" xmlns="http://www.w3.org/2000/svg" xmlns:xlink="http://www.w3.org/1999/xlink">
    <!-- Generator: Sketch 51.2 (57519) - http://www.bohemiancoding.com/sketch -->
    <title>Facebook</title>
    <desc>Created with Sketch.</desc>
    <defs></defs>
    <g id="Page-1" stroke="none" stroke-width="1" fill="none" fill-rule="evenodd">
        <g id="Desktop-HD-V4" transform="translate(-1233.000000, -1179.000000)" fill="#001C31">
            <g id="Group" transform="translate(1075.000000, 1172.000000)">
                <path d="M160.781244,22.9999952 L160.781244,15.8437623 L158.375,15.8437623 L158.375,13.0000191 L160.781244,13.0000191 L160.781244,10.7500244 C160.781244,9.56252727 161.114577,8.64065447 161.781242,7.98440603 C162.447907,7.3281576 163.333322,7.00003338 164.437486,7.00003338 C165.333317,7.00003338 166.062482,7.04169979 166.62498,7.12503308 L166.62498,9.65627705 L165.124984,9.65627705 C164.562485,9.65627705 164.17707,9.78127675 163.968737,10.0312762 C163.802071,10.2396091 163.718737,10.5729414 163.718737,11.0312738 L163.718737,13.0000191 L166.374981,13.0000191 L165.999982,15.8437623 L163.718737,15.8437623 L163.718737,22.9999952 L160.781244,22.9999952 Z" id=""></path>
            </g>
        </g>
    </g>
</svg>