<?xml version="1.0" encoding="UTF-8"?>
<svg width="16px" height="12px" viewBox="0 0 16 12" version="1.1" xmlns="http://www.w3.org/2000/svg" xmlns:xlink="http://www.w3.org/1999/xlink">
    <!-- Generator: Sketch 51.2 (57519) - http://www.bohemiancoding.com/sketch -->
    <desc>Created with Sketch.</desc>
    <defs></defs>
    <g id="Page-1" stroke="none" stroke-width="1" fill="none" fill-rule="evenodd">
        <g id="Desktop-HD-V4" transform="translate(-1131.000000, -1181.000000)" fill="#001C31">
            <g id="Group" transform="translate(1075.000000, 1172.000000)">
                <path d="M58.2499946,11.4375228 C58.2499946,11.2500232 58.1770783,11.0833571 58.0312452,10.937524 L56.6249985,9.25002801 L56.6249985,9.00002861 L61.031238,9.00002861 L64.40623,16.4375109 L67.3749729,9.00002861 L71.5624629,9.00002861 L71.5624629,9.25002801 L70.3437158,10.4062753 C70.2395495,10.4896086 70.1978827,10.6041913 70.2187161,10.7500244 L70.2187161,19.2500042 C70.1978827,19.3958373 70.2395495,19.5104201 70.3437158,19.5937534 L71.531213,20.7500006 L71.531213,21 L65.5937271,21 L65.5937271,20.7500006 L66.8124742,19.5625034 C66.8749741,19.5000036 66.9114325,19.4531287 66.921849,19.4218788 C66.9322654,19.3906288 66.9374739,19.3229205 66.9374739,19.2187542 L66.9374739,12.3437706 L63.562482,20.9687501 L63.0937331,20.9687501 L59.1249925,12.3437706 L59.1249925,18.1250069 C59.1041591,18.3750063 59.1770759,18.5937557 59.343742,18.7812553 L60.9374882,20.7187507 L60.9374882,20.9687501 L56.437499,20.9687501 L56.437499,20.7187507 L58.0312452,18.7812553 C58.2187447,18.5937557 58.291661,18.3750063 58.2499946,18.1250069 L58.2499946,11.4375228 Z" id="ï‡"></path>
            </g>
        </g>
    </g>
</svg>