<?xml version="1.0" encoding="UTF-8"?>
<svg width="14px" height="12px" viewBox="0 0 14 12" version="1.1" xmlns="http://www.w3.org/2000/svg" xmlns:xlink="http://www.w3.org/1999/xlink">
    <!-- Generator: Sketch 51.2 (57519) - http://www.bohemiancoding.com/sketch -->
    <title></title>
    <desc>Created with Sketch.</desc>
    <defs></defs>
    <g id="Page-1" stroke="none" stroke-width="1" fill="none" fill-rule="evenodd">
        <g id="Desktop-HD-V4" transform="translate(-1278.000000, -1181.000000)" fill="#001C31">
            <g id="Group" transform="translate(1075.000000, 1172.000000)">
                <path d="M216.968717,10.093776 L214.843722,20.0312523 C214.760388,20.385418 214.619764,20.6093759 214.421848,20.7031257 C214.223932,20.7968755 213.97914,20.7604171 213.687475,20.593751 L210.468732,18.2187566 L208.906236,19.7187531 C208.80207,19.8229193 208.718736,19.8958361 208.656237,19.9375025 C208.55207,20.0000024 208.416654,20.0312523 208.249987,20.0312523 L208.499987,16.7500101 L214.468723,11.343773 C214.552056,11.2812732 214.578097,11.2239818 214.546847,11.1718984 C214.515598,11.1198151 214.453098,11.0989821 214.359348,11.1093986 C214.265598,11.1198151 214.16664,11.1562735 214.062474,11.2187733 L206.687491,15.8750122 L203.499999,14.8750146 C203.145833,14.7708483 202.979167,14.6145987 203,14.4062657 C203.020833,14.1979327 203.239583,14.0104332 203.656248,13.8437671 L216.062469,9.06252846 C216.374968,8.9583622 216.624968,8.99482013 216.812467,9.1719032 C216.999967,9.34898627 217.05205,9.65627705 216.968717,10.093776 Z" id=""></path>
            </g>
        </g>
    </g>
</svg>