<?xml version="1.0" encoding="UTF-8"?>
<svg width="16px" height="14px" viewBox="0 0 16 14" version="1.1" xmlns="http://www.w3.org/2000/svg" xmlns:xlink="http://www.w3.org/1999/xlink">
    <!-- Generator: Sketch 51.2 (57519) - http://www.bohemiancoding.com/sketch -->
    <desc>Created with Sketch.</desc>
    <defs></defs>
    <g id="Page-1" stroke="none" stroke-width="1" fill="none" fill-rule="evenodd">
        <g id="Desktop-HD-V4" transform="translate(-1180.000000, -1180.000000)" fill="#001C31">
            <g id="Group" transform="translate(1075.000000, 1172.000000)">
                <path d="M119.343716,11.7500221 C119.364549,11.8333553 119.374966,11.9687715 119.374966,12.1562711 C119.374966,13.6562675 119.010383,15.1041806 118.281218,16.5000107 C117.53122,17.9791737 116.479139,19.1562544 115.124976,20.0312523 C113.645813,21.0104165 111.9479,21.4999988 110.031238,21.4999988 C108.197909,21.4999988 106.52083,21.0104165 105,20.0312523 C105.229166,20.0520858 105.489582,20.0625022 105.781248,20.0625022 C107.302078,20.0625022 108.666658,19.5937534 109.874988,18.6562556 C109.145824,18.6562556 108.5052,18.4427146 107.953118,18.0156321 C107.401036,17.5885496 107.020829,17.0520929 106.812496,16.406261 C107.020829,16.4270944 107.218745,16.4375109 107.406244,16.4375109 C107.69791,16.4375109 107.989576,16.406261 108.281242,16.3437611 C107.531244,16.177095 106.906245,15.7916789 106.406247,15.1875139 C105.906248,14.5833488 105.656248,13.8958504 105.656248,13.1250188 L105.656248,13.0625189 C106.114581,13.3333518 106.604163,13.4791844 107.124995,13.5000179 C106.687496,13.1875186 106.33333,12.7916861 106.062497,12.3125207 C105.791665,11.8333553 105.656248,11.3073146 105.656248,10.7343995 C105.656248,10.1614843 105.812498,9.61461064 106.124997,9.09377839 C106.937495,10.1146094 107.932285,10.9271075 109.109365,11.5312726 C110.286446,12.1354376 111.541651,12.4687703 112.874981,12.5312702 C112.833315,12.2812708 112.812481,12.0312714 112.812481,11.781272 C112.812481,11.1979399 112.958315,10.6510662 113.24998,10.1406509 C113.541646,9.6302356 113.937479,9.22919457 114.437477,8.93752876 C114.937476,8.64586295 115.479142,8.5000298 116.062474,8.5000298 C116.541639,8.5000298 116.984346,8.59377958 117.390595,8.78127913 C117.796844,8.96877868 118.156219,9.21877809 118.468718,9.53127734 C119.218716,9.3854442 119.916631,9.12502831 120.562463,8.75002921 C120.312463,9.52086086 119.833298,10.1250259 119.124966,10.5625249 C119.749965,10.4791916 120.374963,10.302109 120.999962,10.0312762 C120.541629,10.6979411 119.989548,11.2708567 119.343716,11.7500221 Z" id=""></path>
            </g>
        </g>
    </g>
</svg>