<?xml version="1.0" encoding="UTF-8"?>
<svg width="18px" height="14px" viewBox="0 0 18 14" version="1.1" xmlns="http://www.w3.org/2000/svg" xmlns:xlink="http://www.w3.org/1999/xlink">
    <!-- Generator: Sketch 51.2 (57519) - http://www.bohemiancoding.com/sketch -->
    <desc>Created with Sketch.</desc>
    <defs></defs>
    <g id="Page-1" stroke="none" stroke-width="1" fill="none" fill-rule="evenodd">
        <g id="Desktop-HD-V4" transform="translate(-1521.000000, -1180.000000)" fill="#001C31">
            <g id="Group" transform="translate(1075.000000, 1172.000000)">
                <path d="M458.031221,12.2500209 C457.093724,12.2500209 456.229142,12.4635619 455.437477,12.8906443 C454.645813,13.3177268 454.020814,13.9010584 453.562482,14.6406402 C453.10415,15.3802219 452.874984,16.1875115 452.874984,17.0625094 C452.874984,17.4791749 452.937483,17.8958409 453.062483,18.3125064 C452.85415,18.3333399 452.666651,18.3437563 452.499985,18.3437563 C452.062486,18.3437563 451.468737,18.27084 450.718739,18.1250069 L450.37499,18.0312571 L448.249995,19.1250045 L448.843743,17.2812589 C447.218747,16.1354281 446.406249,14.7604314 446.406249,13.1562687 C446.406249,12.2187709 446.677082,11.3541895 447.218747,10.5625249 C447.760412,9.77086026 448.499994,9.14586175 449.437492,8.68752936 C450.37499,8.22919696 451.395821,8.00003099 452.499985,8.00003099 C453.479149,8.00003099 454.40623,8.18753055 455.281228,8.56252965 C456.156226,8.93752876 456.890599,9.44794405 457.484348,10.093776 C458.078096,10.739608 458.458304,11.4687727 458.62497,12.2812708 C458.43747,12.2604373 458.239554,12.2500209 458.031221,12.2500209 Z M454.781229,10.5937748 C454.53123,10.5937748 454.31248,10.6614831 454.124981,10.7968993 C453.937481,10.9323155 453.843731,11.1146071 453.843731,11.343773 C453.843731,11.572939 453.937481,11.7552305 454.124981,11.8906467 C454.31248,12.0260629 454.526021,12.0937712 454.765604,12.0937712 C455.005187,12.0937712 455.192687,12.0260629 455.328103,11.8906467 C455.463519,11.7552305 455.531227,11.572939 455.531227,11.343773 C455.531227,11.1146071 455.463519,10.9323155 455.328103,10.7968993 C455.192687,10.6614831 455.010395,10.5937748 454.781229,10.5937748 Z M450.499989,12.0937712 C450.729155,12.0937712 450.916655,12.0260629 451.062488,11.8906467 C451.208321,11.7552305 451.281237,11.572939 451.281237,11.343773 C451.281237,11.1146071 451.208321,10.9323155 451.062488,10.7968993 C450.916655,10.6614831 450.729155,10.5937748 450.499989,10.5937748 C450.270823,10.5937748 450.06249,10.6614831 449.874991,10.7968993 C449.687491,10.9323155 449.593741,11.1146071 449.593741,11.343773 C449.593741,11.572939 449.687491,11.7552305 449.874991,11.8906467 C450.06249,12.0260629 450.270823,12.0937712 450.499989,12.0937712 Z M463.593708,16.9687596 C463.593708,17.6354245 463.395792,18.2812565 462.999959,18.906255 C462.62496,19.4687537 462.114545,19.9895859 461.468713,20.4687513 L461.937462,21.9999976 L460.249966,21.0937498 L460.156216,21.1249997 C459.385385,21.3124993 458.812469,21.406249 458.43747,21.406249 C457.479139,21.406249 456.604141,21.208333 455.812477,20.8125004 C455.020812,20.4166679 454.395813,19.8802112 453.937481,19.2031293 C453.479149,18.5260474 453.249983,17.7864662 453.249983,16.9843846 C453.249983,16.182303 453.479149,15.4427217 453.937481,14.7656399 C454.395813,14.088558 455.020812,13.5521012 455.812477,13.1562687 C456.604141,12.7604362 457.479139,12.5625201 458.43747,12.5625201 C459.333302,12.5625201 460.17705,12.7604362 460.968714,13.1562687 C461.760379,13.5521012 462.395794,14.088558 462.87496,14.7656399 C463.354125,15.4427217 463.593708,16.177095 463.593708,16.9687596 Z M456.749974,16.2187614 C456.97914,16.2187614 457.161432,16.1562615 457.296848,16.0312618 C457.432264,15.9062621 457.499973,15.7656375 457.499973,15.6093879 C457.499973,15.4531382 457.432264,15.3125136 457.296848,15.1875139 C457.161432,15.0625142 456.97914,15.0000143 456.749974,15.0000143 C456.604141,15.0000143 456.468725,15.0625142 456.343725,15.1875139 C456.218726,15.3125136 456.156226,15.4531382 456.156226,15.6093879 C456.156226,15.7656375 456.218726,15.9062621 456.343725,16.0312618 C456.468725,16.1562615 456.604141,16.2187614 456.749974,16.2187614 Z M460.093716,16.2187614 C460.322882,16.2187614 460.505174,16.1562615 460.64059,16.0312618 C460.776006,15.9062621 460.843715,15.7656375 460.843715,15.6093879 C460.843715,15.4531382 460.770798,15.3125136 460.624965,15.1875139 C460.479132,15.0625142 460.302049,15.0000143 460.093716,15.0000143 C459.947883,15.0000143 459.812467,15.0625142 459.687467,15.1875139 C459.562468,15.3125136 459.499968,15.4531382 459.499968,15.6093879 C459.499968,15.7656375 459.562468,15.9062621 459.687467,16.0312618 C459.812467,16.1562615 459.947883,16.2187614 460.093716,16.2187614 Z" id=""></path>
            </g>
        </g>
    </g>
</svg>