<?xml version="1.0" encoding="UTF-8"?>
<svg width="16px" height="13px" viewBox="0 0 16 13" version="1.1" xmlns="http://www.w3.org/2000/svg" xmlns:xlink="http://www.w3.org/1999/xlink">
    <!-- Generator: Sketch 51.2 (57519) - http://www.bohemiancoding.com/sketch -->
    <title></title>
    <desc>Created with Sketch.</desc>
    <defs></defs>
    <g id="Page-1" stroke="none" stroke-width="1" fill="none" fill-rule="evenodd">
        <g id="Desktop-HD-V4" transform="translate(-1376.000000, -1180.000000)" fill="#001C31">
            <g id="Group" transform="translate(1075.000000, 1172.000000)">
                <path d="M313.71872,12.5625201 C313.843719,12.187521 313.776011,11.8541883 313.515595,11.5625225 C313.255179,11.2708567 312.937472,11.16669 312.562472,11.2500232 C312.333306,11.2916897 312.161432,11.2396068 312.046849,11.0937736 C311.932265,10.9479405 311.895808,10.7760659 311.937474,10.5781498 C311.97914,10.3802338 312.10414,10.2604421 312.312473,10.2187757 C312.833305,10.1146094 313.307262,10.1823173 313.734345,10.4219002 C314.161427,10.6614831 314.473926,11.0104403 314.671842,11.4687727 C314.869758,11.9271051 314.885383,12.395854 314.718717,12.8750194 C314.656217,13.0833524 314.526009,13.2031436 314.328093,13.2343935 C314.130177,13.2656434 313.963511,13.2135601 313.828094,13.0781439 C313.692678,12.9427277 313.65622,12.7708531 313.71872,12.5625201 Z M307.718734,20.9687501 C306.593737,20.9687501 305.515614,20.791667 304.484367,20.4375013 C303.453119,20.0833357 302.624996,19.5937534 301.999998,18.9687548 C301.333333,18.3020899 301,17.5416748 301,16.6875103 C301,16.0000119 301.208333,15.2708472 301.624999,14.5000155 C302.041664,13.7291838 302.624996,12.9687691 303.374994,12.2187709 C304.124993,11.4687727 304.895824,10.8750241 305.687489,10.4375252 C306.395821,10.0416926 307.036444,9.83856812 307.609359,9.82815164 C308.182274,9.81773515 308.583315,10.0000262 308.812481,10.3750253 C309.041647,10.7500244 309.041647,11.3021066 308.812481,12.0312714 C308.729148,12.2604373 308.843731,12.3229372 309.156231,12.2187709 L309.18748,12.2187709 C310.020812,11.8646053 310.760393,11.6875222 311.406225,11.6875222 C312.052057,11.6875222 312.505181,11.8698133 312.765597,12.2343959 C313.026013,12.5989785 313.020805,13.1250188 312.749972,13.8125171 C312.708306,13.9583503 312.708306,14.0521001 312.749972,14.0937665 C312.791638,14.1354329 312.885388,14.1770998 313.031221,14.2187662 C314.031219,14.5520989 314.645801,15.0937641 314.874967,15.8437623 C315.0833,16.5520941 314.906217,17.3073003 314.343718,18.1093819 C313.78122,18.9114635 312.947888,19.5729199 311.843724,20.0937522 C310.593727,20.6770843 309.21873,20.9687501 307.718734,20.9687501 Z M312.218723,16.375011 C312.156223,15.8125124 311.885391,15.3125136 311.406225,14.8750146 C310.92706,14.4375156 310.307269,14.1145999 309.546855,13.9062669 C308.78644,13.6979339 307.968733,13.6354341 307.093735,13.7187674 C306.218738,13.8021007 305.432281,14.0208501 304.734366,14.3750158 C304.036451,14.7291815 303.494786,15.1666804 303.10937,15.6875127 C302.723954,16.2083449 302.557288,16.7552186 302.609371,17.3281338 C302.661455,17.9010489 302.927079,18.4062562 303.406244,18.8437551 C303.88541,19.2812541 304.5052,19.6041698 305.265615,19.8125028 C306.02603,20.0208358 306.843736,20.0833357 307.718734,20.0000024 C308.593732,19.9166691 309.385397,19.6979196 310.093728,19.3437539 C310.80206,18.9895883 311.343725,18.5520893 311.718724,18.0312571 C312.093724,17.5104248 312.26039,16.9583431 312.218723,16.375011 Z M311.874974,8.09378077 C312.916638,7.88544778 313.885386,8.03128092 314.781217,8.53127973 C315.656215,8.98961213 316.281214,9.67711049 316.656213,10.5937748 C317.072878,11.552106 317.114545,12.5312702 316.781212,13.5312678 C316.697879,13.7812672 316.546838,13.9218919 316.328088,13.9531418 C316.109339,13.9843917 315.916631,13.9218919 315.749965,13.7656422 C315.583299,13.6093926 315.541632,13.4062681 315.624965,13.1562687 C315.854131,12.4479369 315.82809,11.7604385 315.54684,11.0937736 C315.265591,10.4271087 314.807259,9.92190141 314.171844,9.57815223 C313.536429,9.23440305 312.854138,9.1354448 312.124973,9.28127794 C311.874974,9.34377779 311.677058,9.28648642 311.531225,9.10940335 C311.385392,8.93232028 311.343725,8.73440424 311.406225,8.51565477 C311.468725,8.29690529 311.624975,8.15628062 311.874974,8.09378077 Z M309.40623,17.8125076 C309.156231,18.4166727 308.69269,18.8645886 308.015608,19.1562544 C307.338526,19.4479202 306.67707,19.4895871 306.031238,19.2812541 C305.385406,19.0729211 304.942699,18.692714 304.703116,18.1406318 C304.463533,17.5885496 304.479158,17.0312595 304.749991,16.4687608 C305.020824,15.9062621 305.468739,15.4895966 306.093738,15.2187638 C306.718736,14.9479309 307.354151,14.895848 307.999983,15.0625142 C308.645815,15.2291803 309.109356,15.5781379 309.390605,16.1093867 C309.671854,16.6406354 309.677063,17.2083425 309.40623,17.8125076 Z M306.718736,16.8750098 C306.510403,16.7916765 306.291654,16.7916765 306.062488,16.8750098 C305.833322,16.9583431 305.656239,17.0989678 305.531239,17.2968838 C305.406239,17.4947999 305.369781,17.6927164 305.421864,17.8906324 C305.473948,18.0885484 305.604156,18.2395901 305.812489,18.3437563 C306.020822,18.4479226 306.244779,18.4583396 306.484362,18.3750063 C306.723945,18.291673 306.906236,18.1458403 307.031236,17.9375073 C307.156235,17.7291743 307.187485,17.5208418 307.124985,17.3125088 C307.062486,17.1041758 306.927069,16.9583431 306.718736,16.8750098 Z M307.749984,16.4687608 C307.666651,16.4270944 307.583318,16.4270944 307.499985,16.4687608 C307.416651,16.5104272 307.348943,16.5677191 307.29686,16.6406354 C307.244777,16.7135517 307.229152,16.7864685 307.249985,16.8593849 C307.270819,16.9323012 307.322901,16.9895931 307.406235,17.0312595 C307.489568,17.0729259 307.578109,17.0729259 307.671859,17.0312595 C307.765609,16.9895931 307.833317,16.9323012 307.874984,16.8593849 C307.91665,16.7864685 307.927067,16.7083437 307.906234,16.6250104 C307.8854,16.5416771 307.833317,16.4895942 307.749984,16.4687608 Z" id=""></path>
            </g>
        </g>
    </g>
</svg>