<?xml version="1.0" encoding="UTF-8"?>
<svg width="16px" height="16px" viewBox="0 0 16 16" version="1.1" xmlns="http://www.w3.org/2000/svg" xmlns:xlink="http://www.w3.org/1999/xlink">
    <!-- Generator: Sketch 51.2 (57519) - http://www.bohemiancoding.com/sketch -->
    <title>zsxq</title>
    <desc>Created with Sketch.</desc>
    <defs></defs>
    <g id="Page-1" stroke="none" stroke-width="1" fill="none" fill-rule="evenodd">
        <g id="Desktop-HD-V4" transform="translate(-1425.000000, -1179.000000)" fill="#001C31">
            <g id="Group" transform="translate(1075.000000, 1172.000000)">
                <g id="zsxq" transform="translate(350.000000, 7.000000)">
                    <g id="Group-5">
                        <path d="M8,16 C3.58878832,16 0,12.4112117 0,8 C0,3.58878832 3.58878832,0 8,0 C8.39458881,0 8.79108516,0.0290413625 9.17862774,0.0863065693 C9.60400973,0.149216545 9.89788808,0.545012165 9.83501703,0.970394161 C9.77210706,1.39577616 9.37638929,1.68945985 8.95092944,1.62678345 C8.63852068,1.58061314 8.31863747,1.55717762 8,1.55717762 C4.44741606,1.55717762 1.55717762,4.44741606 1.55717762,8 C1.55717762,11.5525839 4.44741606,14.4428224 8,14.4428224 C11.5525839,14.4428224 14.4428224,11.5525839 14.4428224,8 C14.4428224,7.60175182 14.4063066,7.20307543 14.3342482,6.81510462 C14.2557275,6.3923309 14.5348127,5.98594647 14.9576253,5.90746472 C15.380438,5.82898297 15.7867445,6.1080292 15.8652652,6.53080292 C15.9546861,7.01232117 16,7.50660827 16,8 C16,12.4112117 12.4112117,16 8,16" id="Fill-1"></path>
                        <path d="M14.5454545,2.90909091 C14.5454545,3.71243243 13.8942506,4.36363636 13.0909091,4.36363636 C12.2875676,4.36363636 11.6363636,3.71243243 11.6363636,2.90909091 C11.6363636,2.10574939 12.2875676,1.45454545 13.0909091,1.45454545 C13.8942506,1.45454545 14.5454545,2.10574939 14.5454545,2.90909091" id="Fill-3"></path>
                    </g>
                </g>
            </g>
        </g>
    </g>
</svg>